2600 0 1 0           
23 Abaqus 2019.HF24 - 2601 17 ACIS 26.0.1 Linux 24 Tue Apr 21 20:39:31 2026 
1 9.9999999999999995e-07 1e-10 
T @52 8YM8YVRZ7YPD85TGNMUGH3JVQ6TBRV6X6DRMPPQW6DJ4KJNVJC94 
-0 body $1 -1 -1 $-1 $2 $-1 $3 T -2.2958450216584679e-48 -3.7493994566546446e-32 -1.1392929115889914e-15 10.000000000000002 10 10 #
-1 string_attrib-name_attrib-gen-attrib $-1 -1 $4 $-1 $0 2 1 1 1 1 1 1 1 1 1 1 1 1 1 0 1 1 1 @13 HKS_PART_NAME @2 sc #
-2 lump $5 -1 -1 $-1 $-1 $6 $0 T -2.2958450216584679e-48 -3.7493994566546446e-32 -1.1392929115889914e-15 10.000000000000002 10 10 #
-3 transform $-1 -1 1 0 0 0 1 0 0 0 1 0 0 0 1 no_rotate no_reflect no_shear #
-4 string_attrib-name_attrib-gen-attrib $-1 -1 $-1 $1 $0 2 1 1 1 1 1 1 1 1 1 1 1 1 1 0 1 1 1 @18 HKS_ATTRIB_BODY_ID @1 1 #
-5 cell_ptr-ct-attrib $-1 -1 $-1 $-1 $2 1 1 1 1 1 1 1 1 1 1 1 1 0 1 0 1 1 1 $7 $-1 auto #
-6 shell $-1 -1 -1 $-1 $-1 $-1 $8 $-1 $2 T -2.2958450216584679e-48 -3.7493994566546446e-32 -1.1392929115889914e-15 10.000000000000002 10 10 #
-7 cell3d-cell $-1 -1 $-1 $2 $-1 1 $9 #
-8 face $10 -1 -1 $-1 $11 $12 $6 $-1 $13 reversed single T -2.2958450216584679e-48 -3.7493994566546446e-32 -8.8817841970012523e-16 1.776356839400252e-15 10 10 F #
-9 cshell $-1 -1 $-1 $14 $7 #
-10 cface_ptr-ct-attrib $-1 -1 $-1 $-1 $8 1 1 1 1 1 1 1 1 1 1 1 1 0 1 0 1 1 1 $-1 $15 #
-11 face $16 -1 -1 $-1 $17 $18 $6 $-1 $19 reversed single T 9.9999999999999982 0 0 10.000000000000002 9.9999999999999982 10 F #
-12 loop $-1 -1 -1 $-1 $20 $21 $8 T 1.7763568394002495e-15 1.1999999999999975 1.2 1.776356839400252e-15 8.8000000000000025 8.8000000000000007 hole $13 T #
-13 plane-surface $-1 -1 -1 $-1 1.7763568394002505e-15 10 5 1 0 -0 0 6.123233995736766e-17 1 forward_v I I I I #
-14 cface $-1 -1 $22 $9 $23 0 #
-15 cface $-1 -1 $24 $9 $8 0 #
-16 cface_ptr-ct-attrib $-1 -1 $-1 $-1 $11 1 1 1 1 1 1 1 1 1 1 1 1 0 1 0 1 1 1 $-1 $25 #
-17 face $26 -1 -1 $-1 $23 $27 $6 $-1 $28 forward single T 1.7763568394002485e-15 0.8485281374238568 -1.1392929115889914e-15 1.2000000000000008 9.1514718625761429 1.2000000000000006 F #
-18 loop $-1 -1 -1 $-1 $29 $30 $11 T 10.000000000000002 0 0 10.000000000000002 9.9999999999999982 10 periphery $19 T #
-19 plane-surface $-1 -1 -1 $-1 9.9999999999999982 10 5 -1 -0 0 0 -6.123233995736766e-17 -1 forward_v I I I I #
-20 loop $-1 -1 -1 $-1 $-1 $31 $8 T -2.2958450216584679e-48 -3.7493994566546446e-32 -8.8817841970012523e-16 1.7763568394002505e-15 10 10 periphery $13 T #
-21 coedge $-1 -1 -1 $-1 $32 $33 $34 $35 reversed $12 $-1 #
-22 cface $-1 -1 $36 $9 $37 0 #
-23 face $38 -1 -1 $-1 $39 $40 $6 $-1 $41 forward single T 1.7763568394002505e-15 7.2783103828711195e-16 0.84852813742385724 1.2000000000000006 1.2000000000000002 9.1514718625761429 F #
-24 cface $-1 -1 $42 $9 $43 0 #
-25 cface $-1 -1 $44 $9 $11 0 #
-26 cface_ptr-ct-attrib $-1 -1 $-1 $-1 $17 1 1 1 1 1 1 1 1 1 1 1 1 0 1 0 1 1 1 $-1 $36 #
-27 loop $-1 -1 -1 $-1 $-1 $45 $17 T 1.7763568394002485e-15 0.8485281374238568 -1.1392929115889914e-15 1.2000000000000008 9.1514718625761429 1.2000000000000006 periphery $28 F #
-28 cone-surface $-1 -1 -1 $-1 0 10 0 0 -1 6.123233995736766e-17 1.2 0 0 1 I I 0 1 1.2 forward I I I I #
-29 loop $-1 -1 -1 $-1 $-1 $46 $11 T 9.9999999999999982 1.1999999999999975 1.2 9.9999999999999982 8.8000000000000007 8.8000000000000007 hole $19 T #
-30 coedge $-1 -1 -1 $-1 $47 $48 $49 $50 forward $18 $-1 #
-31 coedge $-1 -1 -1 $-1 $51 $52 $53 $54 reversed $20 $-1 #
-32 coedge $-1 -1 -1 $-1 $55 $21 $56 $57 reversed $12 $-1 #
-33 coedge $-1 -1 -1 $-1 $21 $55 $58 $59 reversed $12 $-1 #
-34 coedge $-1 -1 -1 $-1 $60 $61 $21 $35 forward $62 $-1 #
-35 edge $-1 -1 -1 $-1 $63 -8.8000000000000025 $64 -1.1999999999999975 $34 $65 forward @7 unknown T 1.7763568394002505e-15 1.1999999999999975 8.8000000000000007 1.776356839400252e-15 8.8000000000000025 8.8000000000000007 #
-36 cface $-1 -1 $15 $9 $17 0 #
-37 face $66 -1 -1 $-1 $67 $68 $6 $-1 $69 forward single T 0.84852813742385624 9.924968703915184e-17 -9.9233529569130931e-16 9.1514718625761429 1.2 1.2000000000000006 F #
-38 cface_ptr-ct-attrib $-1 -1 $-1 $-1 $23 1 1 1 1 1 1 1 1 1 1 1 1 0 1 0 1 1 1 $-1 $14 #
-39 face $70 -1 -1 $-1 $71 $72 $6 $-1 $73 forward single T 8.8000000000000007 9.9249687039151741e-17 0.84852813742385735 9.9999999999999982 1.2000000000000002 9.1514718625761429 F #
-40 loop $-1 -1 -1 $-1 $-1 $56 $23 T 1.7763568394002505e-15 7.2783103828711195e-16 0.84852813742385724 1.2000000000000006 1.2000000000000002 9.1514718625761429 periphery $41 F #
-41 cone-surface $-1 -1 -1 $-1 0 0 0 0 0 1 1.2 0 0 1 I I 0 1 1.2 forward I I I I #
-42 cface $-1 -1 $74 $9 $67 0 #
-43 face $75 -1 -1 $-1 $76 $77 $6 $-1 $78 forward single T 1.7763568394002485e-15 8.8000000000000007 0.84852813742385802 1.2000000000000006 9.9999999999999982 9.1514718625761429 F #
-44 cface $-1 -1 $-1 $9 $79 0 #
-45 coedge $-1 -1 -1 $-1 $80 $81 $55 $82 forward $27 $-1 #
-46 coedge $-1 -1 -1 $-1 $83 $84 $85 $86 reversed $29 $-1 #
-47 coedge $-1 -1 -1 $-1 $87 $30 $88 $89 forward $18 $-1 #
-48 coedge $-1 -1 -1 $-1 $30 $87 $90 $91 forward $18 $-1 #
-49 coedge $-1 -1 -1 $-1 $92 $93 $30 $50 reversed $94 $-1 #
-50 edge $-1 -1 -1 $-1 $95 0 $96 10 $49 $97 forward @7 unknown T 10.000000000000002 0 0 10.000000000000002 0 10 #
-51 coedge $-1 -1 -1 $-1 $98 $31 $99 $100 reversed $20 $-1 #
-52 coedge $-1 -1 -1 $-1 $31 $98 $101 $102 reversed $20 $-1 #
-53 coedge $-1 -1 -1 $-1 $93 $92 $31 $54 forward $94 $-1 #
-54 edge $-1 -1 -1 $-1 $103 -5 $104 5 $53 $105 forward @7 unknown T -2.2958450216584679e-48 -3.7493994566546446e-32 0 1.7763568394002505e-15 8.8817841970012523e-16 10 #
-55 coedge $-1 -1 -1 $-1 $33 $32 $45 $82 reversed $12 $-1 #
-56 coedge $-1 -1 -1 $-1 $106 $107 $32 $57 forward $40 $-1 #
-57 edge $-1 -1 -1 $-1 $108 1.2000000000000006 $63 8.8000000000000007 $56 $109 forward @7 unknown T 1.7763568394002505e-15 1.1999999999999975 1.2000000000000006 1.776356839400252e-15 1.2000000000000002 8.8000000000000007 #
-58 coedge $-1 -1 -1 $-1 $110 $111 $33 $59 forward $77 $-1 #
-59 edge $-1 -1 -1 $-1 $64 -8.8000000000000007 $112 -1.2000000000000004 $58 $113 forward @7 unknown T 1.7763568394002495e-15 8.8000000000000007 1.2000000000000004 1.7763568394002505e-15 8.8000000000000025 8.8000000000000007 #
-60 coedge $-1 -1 -1 $-1 $114 $34 $111 $115 reversed $62 $-1 #
-61 coedge $-1 -1 -1 $-1 $34 $116 $106 $117 reversed $62 $-1 #
-62 loop $-1 -1 -1 $-1 $-1 $34 $67 T 1.7763568394002505e-15 0.84852813742385613 8.8000000000000007 1.2000000000000006 9.1514718625761429 10 periphery $118 F #
-63 vertex $-1 -1 -1 $-1 $117 $119 #
-64 vertex $-1 -1 -1 $-1 $35 $120 #
-65 straight-curve $-1 -1 -1 $-1 1.7763568394002505e-15 10 8.8000000000000007 -0 1 -6.123233995736766e-17 I I #
-66 cface_ptr-ct-attrib $-1 -1 $-1 $-1 $37 1 1 1 1 1 1 1 1 1 1 1 1 0 1 0 1 1 1 $-1 $22 #
-67 face $121 -1 -1 $-1 $122 $62 $6 $-1 $118 forward single T 1.7763568394002505e-15 0.84852813742385613 8.8000000000000007 1.2000000000000006 9.1514718625761429 10 F #
-68 loop $-1 -1 -1 $-1 $-1 $123 $37 T 0.84852813742385624 9.924968703915184e-17 -9.9233529569130931e-16 9.1514718625761429 1.2 1.2000000000000006 periphery $69 F #
-69 cone-surface $-1 -1 -1 $-1 0 0 0 1 -6.123233995736766e-17 6.123233995736766e-17 7.347880794884119e-17 1.2 0 1 I I 0 1 1.2 forward I I I I #
-70 cface_ptr-ct-attrib $-1 -1 $-1 $-1 $39 1 1 1 1 1 1 1 1 1 1 1 1 0 1 0 1 1 1 $-1 $124 #
-71 face $125 -1 -1 $-1 $126 $127 $6 $-1 $128 forward single T 8.7999999999999989 0.8485281374238568 -3.8001189611763258e-16 9.9999999999999982 9.1514718625761429 1.2000000000000006 F #
-72 loop $-1 -1 -1 $-1 $-1 $129 $39 T 8.8000000000000007 9.9249687039151741e-17 0.84852813742385735 9.9999999999999982 1.2000000000000002 9.1514718625761429 periphery $73 F #
-73 cone-surface $-1 -1 -1 $-1 10 0 0 0 0 1 1.2 0 0 1 I I 0 1 1.2 forward I I I I #
-74 cface $-1 -1 $124 $9 $122 0 #
-75 cface_ptr-ct-attrib $-1 -1 $-1 $-1 $43 1 1 1 1 1 1 1 1 1 1 1 1 0 1 0 1 1 1 $-1 $24 #
-76 face $130 -1 -1 $-1 $79 $131 $6 $-1 $132 forward single T 0.84852813742385502 8.7999999999999989 8.8000000000000007 9.1514718625761446 9.9999999999999982 10 F #
-77 loop $-1 -1 -1 $-1 $-1 $58 $43 T 1.7763568394002485e-15 8.8000000000000007 0.84852813742385802 1.2000000000000006 9.9999999999999982 9.1514718625761429 periphery $78 F #
-78 cone-surface $-1 -1 -1 $-1 0 10 0 0 0 1 1.2 0 0 1 I I 0 1 1.2 forward I I I I #
-79 face $133 -1 -1 $-1 $134 $135 $6 $-1 $136 forward single T 8.8000000000000007 8.8000000000000007 0.84852813742385802 9.9999999999999982 9.9999999999999982 9.1514718625761429 F #
-80 coedge $-1 -1 -1 $-1 $137 $45 $107 $138 reversed $27 $-1 #
-81 coedge $-1 -1 -1 $-1 $45 $139 $110 $140 reversed $27 $-1 #
-82 edge $-1 -1 -1 $-1 $112 1.1999999999999993 $108 8.8000000000000007 $45 $141 forward @7 unknown T 1.7763568394002495e-15 1.1999999999999993 1.2 1.7763568394002505e-15 8.8000000000000007 1.2000000000000006 #
-83 coedge $-1 -1 -1 $-1 $142 $46 $143 $144 reversed $29 $-1 #
-84 coedge $-1 -1 -1 $-1 $46 $142 $145 $146 reversed $29 $-1 #
-85 coedge $-1 -1 -1 $-1 $147 $148 $46 $86 forward $135 $-1 #
-86 edge $-1 -1 -1 $-1 $149 1.2000000000000002 $150 8.8000000000000007 $85 $151 forward @7 unknown T 9.9999999999999982 8.8000000000000007 1.2000000000000002 9.9999999999999982 8.8000000000000007 8.8000000000000007 #
-87 coedge $-1 -1 -1 $-1 $48 $47 $152 $153 forward $18 $-1 #
-88 coedge $-1 -1 -1 $-1 $154 $155 $47 $89 reversed $156 $-1 #
-89 edge $-1 -1 -1 $-1 $96 0 $157 9.9999999999999982 $88 $158 forward @7 unknown T 10.000000000000002 0 0 10.000000000000002 9.9999999999999982 3.7493994566546435e-32 #
-90 coedge $-1 -1 -1 $-1 $159 $160 $48 $91 reversed $161 $-1 #
-91 edge $162 -1 -1 $-1 $163 0 $95 9.9999999999999982 $90 $164 forward @7 unknown T 10.000000000000002 0 10 10.000000000000002 9.9999999999999982 10 #
-92 coedge $-1 -1 -1 $-1 $53 $49 $160 $165 forward $94 $-1 #
-93 coedge $-1 -1 -1 $-1 $49 $53 $154 $166 reversed $94 $-1 #
-94 loop $-1 -1 -1 $-1 $167 $53 $168 T -2.2958450216584679e-48 -3.7493994566546446e-32 -8.2708072532626418e-16 10.000000000000002 8.8817841970012523e-16 10 periphery $169 T #
-95 vertex $170 -1 -1 $-1 $91 $171 #
-96 vertex $172 -1 -1 $-1 $89 $173 #
-97 straight-curve $-1 -1 -1 $-1 10.000000000000002 0 10 6.123233995736766e-17 0 -1 I I #
-98 coedge $-1 -1 -1 $-1 $52 $51 $174 $175 reversed $20 $-1 #
-99 coedge $-1 -1 -1 $-1 $160 $159 $51 $100 forward $161 $-1 #
-100 edge $176 -1 -1 $-1 $177 -2.5 $103 7.5 $99 $178 forward @7 unknown T 0 0 10 1.7763568394002505e-15 10 10 #
-101 coedge $-1 -1 -1 $-1 $155 $154 $52 $102 forward $156 $-1 #
-102 edge $-1 -1 -1 $-1 $104 -7.5 $179 2.5 $101 $180 forward @7 unknown T -2.2958450216584679e-48 -3.7493994566546446e-32 -8.8817841970012523e-16 1.7763568394002505e-15 10 0 #
-103 vertex $181 -1 -1 $-1 $54 $182 #
-104 vertex $-1 -1 -1 $-1 $54 $183 #
-105 straight-curve $-1 -1 -1 $-1 1.7763568394002505e-15 8.8817841970012523e-16 5 -0 5.0644088145364023e-33 -1 I I #
-106 coedge $-1 -1 -1 $-1 $184 $56 $61 $117 forward $40 $-1 #
-107 coedge $-1 -1 -1 $-1 $56 $185 $80 $138 forward $40 $-1 #
-108 vertex $-1 -1 -1 $-1 $57 $186 #
-109 straight-curve $-1 -1 -1 $-1 1.7763568394002505e-15 1.2 0 0 0 1 I I #
-110 coedge $-1 -1 -1 $-1 $187 $58 $81 $140 forward $77 $-1 #
-111 coedge $-1 -1 -1 $-1 $58 $188 $60 $115 forward $77 $-1 #
-112 vertex $-1 -1 -1 $-1 $140 $189 #
-113 straight-curve $-1 -1 -1 $-1 1.7763568394002505e-15 8.8000000000000007 0 -0 -0 -1 I I #
-114 coedge $-1 -1 -1 $-1 $190 $60 $191 $192 forward $62 $-1 #
-115 edge $-1 -1 -1 $-1 $193 2.3561944901923466 $64 3.1415926535897913 $111 $194 forward @7 unknown T 1.7763568394002505e-15 8.8000000000000025 8.8000000000000007 0.84852813742385558 9.1514718625761429 9.1514718625761411 #
-116 coedge $-1 -1 -1 $-1 $61 $190 $195 $196 forward $62 $-1 #
-117 edge $-1 -1 -1 $-1 $63 3.1415926535897949 $197 3.9269908169872414 $106 $198 forward @7 unknown T 1.776356839400252e-15 0.84852813742385624 8.8000000000000007 0.84852813742385724 1.1999999999999988 9.1514718625761429 #
-118 cone-surface $-1 -1 -1 $-1 0 10 10 0 -1 6.123233995736766e-17 1.2 0 0 1 I I 0 1 1.2 forward I I I I #
-119 point $-1 -1 -1 $-1 1.776356839400252e-15 1.1999999999999975 8.8000000000000007 #
-120 point $-1 -1 -1 $-1 1.7763568394002505e-15 8.8000000000000025 8.8000000000000007 #
-121 cface_ptr-ct-attrib $-1 -1 $-1 $-1 $67 1 1 1 1 1 1 1 1 1 1 1 1 0 1 0 1 1 1 $-1 $42 #
-122 face $199 -1 -1 $-1 $43 $200 $6 $-1 $201 forward single T 0.84852813742385547 9.9249687039151741e-17 8.8000000000000007 9.1514718625761429 1.2 10 F #
-123 coedge $-1 -1 -1 $-1 $202 $203 $204 $205 forward $68 $-1 #
-124 cface $-1 -1 $206 $9 $39 0 #
-125 cface_ptr-ct-attrib $-1 -1 $-1 $-1 $71 1 1 1 1 1 1 1 1 1 1 1 1 0 1 0 1 1 1 $-1 $207 #
-126 face $208 -1 -1 $-1 $209 $156 $6 $-1 $210 reversed single T -2.2958450216584679e-48 -3.7493994566546446e-32 -8.8817841970012523e-16 10.000000000000002 10 4.3959490458568356e-16 F #
-127 loop $-1 -1 -1 $-1 $-1 $143 $71 T 8.7999999999999989 0.8485281374238568 -3.8001189611763258e-16 9.9999999999999982 9.1514718625761429 1.2000000000000006 periphery $128 F #
-128 cone-surface $-1 -1 -1 $-1 9.9999999999999982 10 0 0 -1 6.123233995736766e-17 1.2 0 0 1 I I 0 1 1.2 forward I I I I #
-129 coedge $-1 -1 -1 $-1 $211 $212 $142 $213 forward $72 $-1 #
-130 cface_ptr-ct-attrib $-1 -1 $-1 $-1 $76 1 1 1 1 1 1 1 1 1 1 1 1 0 1 0 1 1 1 $-1 $214 #
-131 loop $-1 -1 -1 $-1 $-1 $215 $76 T 0.84852813742385502 8.7999999999999989 8.8000000000000007 9.1514718625761446 9.9999999999999982 10 periphery $132 F #
-132 cone-surface $-1 -1 -1 $-1 1.7763568394002505e-15 9.9999999999999982 10 1 -6.123233995736766e-17 6.123233995736766e-17 7.347880794884119e-17 1.2 0 1 I I 0 1 1.2 forward I I I I #
-133 cface_ptr-ct-attrib $-1 -1 $-1 $-1 $79 1 1 1 1 1 1 1 1 1 1 1 1 0 1 0 1 1 1 $-1 $44 #
-134 face $216 -1 -1 $-1 $217 $218 $6 $-1 $219 forward single T 0.8485281374238558 8.7999999999999972 -1.1392929115889914e-15 9.1514718625761429 9.9999999999999982 1.2000000000000006 F #
-135 loop $-1 -1 -1 $-1 $-1 $85 $79 T 8.8000000000000007 8.8000000000000007 0.84852813742385802 9.9999999999999982 9.9999999999999982 9.1514718625761429 periphery $136 F #
-136 cone-surface $-1 -1 -1 $-1 10 10 0 0 0 1 1.2 0 0 1 I I 0 1 1.2 forward I I I I #
-137 coedge $-1 -1 -1 $-1 $220 $80 $202 $221 forward $27 $-1 #
-138 edge $-1 -1 -1 $-1 $222 -0.78539816339744872 $108 -1.7763568394002505e-15 $107 $223 forward @7 unknown T 1.7763568394002505e-15 0.8485281374238568 0.84852813742385724 0.84852813742385724 1.2000000000000002 1.2000000000000006 #
-139 coedge $-1 -1 -1 $-1 $81 $220 $224 $225 forward $27 $-1 #
-140 edge $-1 -1 -1 $-1 $112 1.4802973661668741e-15 $226 0.78539816339744695 $110 $227 forward @7 unknown T 1.7763568394002485e-15 8.8000000000000007 0.84852813742385802 0.8485281374238558 9.1514718625761429 1.2000000000000004 #
-141 straight-curve $-1 -1 -1 $-1 1.7763568394002505e-15 10 1.2 0 -1 6.123233995736766e-17 I I #
-142 coedge $-1 -1 -1 $-1 $84 $83 $129 $213 reversed $29 $-1 #
-143 coedge $-1 -1 -1 $-1 $228 $229 $83 $144 forward $127 $-1 #
-144 edge $-1 -1 -1 $-1 $230 -8.8000000000000007 $149 -1.1999999999999993 $143 $231 forward @7 unknown T 9.9999999999999982 1.1999999999999993 1.2 9.9999999999999982 8.8000000000000007 1.2000000000000006 #
-145 coedge $-1 -1 -1 $-1 $232 $233 $84 $146 forward $234 $-1 #
-146 edge $-1 -1 -1 $-1 $150 1.1999999999999993 $235 8.8000000000000025 $145 $236 forward @7 unknown T 9.9999999999999982 1.1999999999999975 8.8000000000000007 9.9999999999999982 8.8000000000000007 8.8000000000000007 #
-147 coedge $-1 -1 -1 $-1 $237 $85 $233 $238 forward $135 $-1 #
-148 coedge $-1 -1 -1 $-1 $85 $239 $228 $240 forward $135 $-1 #
-149 vertex $-1 -1 -1 $-1 $86 $241 #
-150 vertex $-1 -1 -1 $-1 $238 $242 #
-151 straight-curve $-1 -1 -1 $-1 9.9999999999999982 8.8000000000000007 0 0 0 1 I I #
-152 coedge $-1 -1 -1 $-1 $243 $244 $87 $153 reversed $245 $-1 #
-153 edge $-1 -1 -1 $-1 $157 0 $163 10 $152 $246 forward @7 unknown T 10.000000000000002 9.9999999999999982 0 10.000000000000002 9.9999999999999982 10 #
-154 coedge $-1 -1 -1 $-1 $101 $88 $93 $166 forward $156 $-1 #
-155 coedge $-1 -1 -1 $-1 $88 $101 $243 $247 reversed $156 $-1 #
-156 loop $-1 -1 -1 $-1 $248 $101 $126 T -2.2958450216584679e-48 -3.7493994566546446e-32 -8.8817841970012523e-16 10.000000000000002 10 3.7493994566546435e-32 periphery $210 T #
-157 vertex $249 -1 -1 $-1 $153 $250 #
-158 straight-curve $-1 -1 -1 $-1 10.000000000000002 0 0 6.123233995736766e-17 1 3.749399456654644e-33 I I #
-159 coedge $-1 -1 -1 $-1 $99 $90 $244 $251 forward $161 $-1 #
-160 coedge $-1 -1 -1 $-1 $90 $99 $92 $165 reversed $161 $-1 #
-161 loop $-1 -1 -1 $-1 $252 $99 $253 T 0 0 10 10.000000000000002 10 10 periphery $254 T #
-162 integer_attrib-name_attrib-gen-attrib $-1 -1 $-1 $-1 $91 2 4 2 1 1 1 1 1 1 1 1 1 1 1 0 1 1 1 @16 SKETCH_ENTITY_ID 300016 #
-163 vertex $255 -1 -1 $-1 $153 $256 #
-164 straight-curve $-1 -1 -1 $-1 10.000000000000002 9.9999999999999982 10 -6.123233995736766e-17 -1 -3.749399456654644e-33 I I #
-165 edge $257 -1 -1 $-1 $95 0 $103 10.000000000000002 $160 $258 forward @7 unknown T 0 0 10 10.000000000000002 8.2708072532626418e-16 10 #
-166 edge $-1 -1 -1 $-1 $96 0 $104 10.000000000000002 $93 $259 forward @7 unknown T 0 0 -8.2708072532626418e-16 10.000000000000002 8.2708072532626418e-16 0 #
-167 loop $-1 -1 -1 $-1 $-1 $260 $168 T 1.1999999999999975 9.9249687039151741e-17 1.2 8.8000000000000025 7.5360191737742315e-16 8.8000000000000007 hole $169 T #
-168 face $261 -1 -1 $-1 $253 $94 $6 $-1 $169 reversed single T -2.2958450216584679e-48 -3.7493994566546446e-32 -8.2708072532626418e-16 10.000000000000002 8.8817841970012523e-16 10 F #
-169 plane-surface $-1 -1 -1 $-1 10.000000000000002 0 5 8.2708072532626406e-17 1 5.0644088145364023e-33 6.123233995736766e-17 0 -1 forward_v I I I I #
-170 integer_attrib-name_attrib-gen-attrib $-1 -1 $262 $-1 $95 2 4 2 1 1 1 1 1 1 1 1 1 1 1 0 1 1 1 @16 SKETCH_ENTITY_ID 300001 #
-171 point $-1 -1 -1 $-1 10 0 10 #
-172 integer_attrib-name_attrib-gen-attrib $-1 -1 $-1 $-1 $96 2 4 2 1 1 1 1 1 1 1 1 1 1 1 0 1 1 1 @16 SKETCH_ENTITY_ID 300008 #
-173 point $-1 -1 -1 $-1 10 -3.7493994566546446e-32 0 #
-174 coedge $-1 -1 -1 $-1 $244 $243 $98 $175 forward $245 $-1 #
-175 edge $-1 -1 -1 $-1 $179 -5 $177 5 $174 $263 forward @7 unknown T 1.7763568394002505e-15 10 0 1.7763568394002505e-15 10 10 #
-176 integer_attrib-name_attrib-gen-attrib $-1 -1 $-1 $-1 $100 2 4 2 1 1 1 1 1 1 1 1 1 1 1 0 1 1 1 @16 SKETCH_ENTITY_ID 300014 #
-177 vertex $264 -1 -1 $-1 $175 $265 #
-178 straight-curve $-1 -1 -1 $-1 1.7763568394002505e-15 7.5 10 0 -1 1.3150093578817583e-33 I I #
-179 vertex $266 -1 -1 $-1 $175 $267 #
-180 straight-curve $-1 -1 -1 $-1 1.7763568394002505e-15 7.5 -8.8817841970012523e-16 -0 1 -1.3150093578817583e-33 I I #
-181 integer_attrib-name_attrib-gen-attrib $-1 -1 $-1 $-1 $103 2 4 2 1 1 1 1 1 1 1 1 1 1 1 0 1 1 1 @16 SKETCH_ENTITY_ID 300004 #
-182 point $-1 -1 -1 $-1 0 0 10 #
-183 point $-1 -1 -1 $-1 -2.2958450216584679e-48 -3.7493994566546446e-32 0 #
-184 coedge $-1 -1 -1 $-1 $268 $106 $269 $270 forward $40 $-1 #
-185 coedge $-1 -1 -1 $-1 $107 $268 $271 $272 forward $40 $-1 #
-186 point $-1 -1 -1 $-1 1.7763568394002505e-15 1.2000000000000002 1.2000000000000006 #
-187 coedge $-1 -1 -1 $-1 $273 $110 $274 $275 forward $77 $-1 #
-188 coedge $-1 -1 -1 $-1 $111 $273 $276 $277 forward $77 $-1 #
-189 point $-1 -1 -1 $-1 1.7763568394002495e-15 8.8000000000000007 1.2000000000000004 #
-190 coedge $-1 -1 -1 $-1 $116 $114 $278 $279 forward $62 $-1 #
-191 coedge $-1 -1 -1 $-1 $276 $215 $114 $192 reversed $131 $-1 #
-192 edge $-1 -1 -1 $-1 $193 2.3561944901923422 $280 3.1415926535897931 $114 $281 forward @7 unknown T 0.84852813742385502 8.7999999999999989 9.1514718625761411 1.2000000000000006 9.1514718625761429 10 #
-193 vertex $-1 -1 -1 $-1 $115 $282 #
-194 ellipse-curve $-1 -1 -1 $-1 0 10 10 -0 0.70710678118654802 -0.70710678118654691 -0 1.199999999999998 1.2 0.70710678118654813 I I #
-195 coedge $-1 -1 -1 $-1 $283 $269 $116 $196 reversed $200 $-1 #
-196 edge $-1 -1 -1 $-1 $284 6.1232339957367599e-17 $197 0.78539816339744939 $116 $285 forward @7 unknown T 0.84852813742385547 0.84852813742385613 9.1514718625761411 1.1999999999999988 1.2 10 #
-197 vertex $-1 -1 -1 $-1 $196 $286 #
-198 ellipse-curve $-1 -1 -1 $-1 0 0 10 0 -0.70710678118654791 -0.70710678118654724 0 -1.1999999999999988 1.2 0.70710678118654791 I I #
-199 cface_ptr-ct-attrib $-1 -1 $-1 $-1 $122 1 1 1 1 1 1 1 1 1 1 1 1 0 1 0 1 1 1 $-1 $74 #
-200 loop $-1 -1 -1 $-1 $-1 $287 $122 T 0.84852813742385547 9.9249687039151741e-17 8.8000000000000007 9.1514718625761429 1.2 10 periphery $201 F #
-201 cone-surface $-1 -1 -1 $-1 0 0 10 1 -6.123233995736766e-17 6.123233995736766e-17 7.347880794884119e-17 1.2 0 1 I I 0 1 1.2 forward I I I I #
-202 coedge $-1 -1 -1 $-1 $271 $123 $137 $221 reversed $68 $-1 #
-203 coedge $-1 -1 -1 $-1 $123 $288 $289 $290 reversed $68 $-1 #
-204 coedge $-1 -1 -1 $-1 $291 $292 $123 $205 reversed $248 $-1 #
-205 edge $-1 -1 -1 $-1 $293 -8.7999999999999989 $294 -1.1999999999999975 $123 $295 forward @7 unknown T 1.1999999999999975 1.1999999999999986 -7.5360191737742315e-16 8.7999999999999989 1.2 -9.9249687039152345e-17 #
-206 cface $-1 -1 $296 $9 $253 0 #
-207 cface $-1 -1 $297 $9 $71 0 #
-208 cface_ptr-ct-attrib $-1 -1 $-1 $-1 $126 1 1 1 1 1 1 1 1 1 1 1 1 0 1 0 1 1 1 $-1 $296 #
-209 face $298 -1 -1 $-1 $168 $245 $6 $-1 $299 reversed single T 1.7763568394002505e-15 9.9999999999999982 -8.2708072532626408e-16 10.000000000000002 10 10 F #
-210 plane-surface $-1 -1 -1 $-1 10.000000000000002 4.9999999999999991 1.8746997283273217e-32 -8.2708072532626406e-17 1.3150093578817583e-33 1 6.123233995736766e-17 1 3.749399456654644e-33 forward_v I I I I #
-211 coedge $-1 -1 -1 $-1 $300 $129 $229 $301 forward $72 $-1 #
-212 coedge $-1 -1 -1 $-1 $129 $302 $232 $303 forward $72 $-1 #
-213 edge $-1 -1 -1 $-1 $235 -8.8000000000000007 $230 -1.2000000000000006 $129 $304 forward @7 unknown T 9.9999999999999982 1.1999999999999975 1.2000000000000006 9.9999999999999982 1.2000000000000002 8.8000000000000007 #
-214 cface $-1 -1 $305 $9 $76 0 #
-215 coedge $-1 -1 -1 $-1 $191 $306 $307 $308 forward $131 $-1 #
-216 cface_ptr-ct-attrib $-1 -1 $-1 $-1 $134 1 1 1 1 1 1 1 1 1 1 1 1 0 1 0 1 1 1 $-1 $297 #
-217 face $309 -1 -1 $-1 $-1 $234 $6 $-1 $310 forward single T 8.7999999999999989 0.84852813742385602 8.8000000000000007 9.9999999999999982 9.1514718625761429 10 F #
-218 loop $-1 -1 -1 $-1 $-1 $311 $134 T 0.8485281374238558 8.7999999999999972 -1.1392929115889914e-15 9.1514718625761429 9.9999999999999982 1.2000000000000006 periphery $219 F #
-219 cone-surface $-1 -1 -1 $-1 1.7763568394002505e-15 9.9999999999999982 0 1 -6.123233995736766e-17 6.123233995736766e-17 7.347880794884119e-17 1.2 0 1 I I 0 1 1.2 forward I I I I #
-220 coedge $-1 -1 -1 $-1 $139 $137 $292 $312 forward $27 $-1 #
-221 edge $-1 -1 -1 $-1 $222 -0.78539816339744806 $294 8.8817841970012523e-16 $137 $313 forward @7 unknown T 0.84852813742385624 0.8485281374238568 -9.9233529569130931e-16 1.1999999999999988 1.2 0.84852813742385724 #
-222 vertex $-1 -1 -1 $-1 $138 $314 #
-223 ellipse-curve $-1 -1 -1 $-1 0 0 6.1232339957367663e-16 0 -0.70710678118654746 0.70710678118654757 -0 1.2000000000000002 1.2 0.70710678118654746 I I #
-224 coedge $-1 -1 -1 $-1 $311 $274 $139 $225 reversed $218 $-1 #
-225 edge $-1 -1 -1 $-1 $315 3.1415926535897922 $226 3.9269908169872432 $139 $316 forward @7 unknown T 0.8485281374238558 8.7999999999999972 -1.1392929115889914e-15 1.2000000000000008 9.1514718625761429 0.84852813742385824 #
-226 vertex $-1 -1 -1 $-1 $275 $317 #
-227 ellipse-curve $-1 -1 -1 $-1 0 10 0 -0 0.70710678118654768 0.70710678118654724 0 -1.1999999999999993 1.2 0.70710678118654768 I I #
-228 coedge $-1 -1 -1 $-1 $318 $143 $148 $240 reversed $127 $-1 #
-229 coedge $-1 -1 -1 $-1 $143 $289 $211 $301 reversed $127 $-1 #
-230 vertex $-1 -1 -1 $-1 $301 $319 #
-231 straight-curve $-1 -1 -1 $-1 9.9999999999999982 10 1.2 -0 1 -6.123233995736766e-17 I I #
-232 coedge $-1 -1 -1 $-1 $320 $145 $212 $303 reversed $234 $-1 #
-233 coedge $-1 -1 -1 $-1 $145 $321 $147 $238 reversed $234 $-1 #
-234 loop $-1 -1 -1 $-1 $-1 $145 $217 T 8.7999999999999989 0.84852813742385602 8.8000000000000007 9.9999999999999982 9.1514718625761429 10 periphery $310 F #
-235 vertex $-1 -1 -1 $-1 $146 $322 #
-236 straight-curve $-1 -1 -1 $-1 9.9999999999999982 10 8.8000000000000007 0 -1 6.123233995736766e-17 I I #
-237 coedge $-1 -1 -1 $-1 $323 $147 $324 $325 forward $135 $-1 #
-238 edge $-1 -1 -1 $-1 $150 3.1415926535897931 $326 3.9269908169872387 $147 $327 forward @7 unknown T 9.1514718625761429 8.8000000000000007 8.8000000000000007 9.9999999999999982 9.1514718625761429 9.1514718625761429 #
-239 coedge $-1 -1 -1 $-1 $148 $323 $328 $329 forward $135 $-1 #
-240 edge $-1 -1 -1 $-1 $330 -0.78539816339744717 $149 0 $148 $331 forward @7 unknown T 9.1514718625761411 8.8000000000000007 0.84852813742385802 9.9999999999999982 9.1514718625761429 1.2000000000000002 #
-241 point $-1 -1 -1 $-1 9.9999999999999982 8.8000000000000007 1.2000000000000002 #
-242 point $-1 -1 -1 $-1 9.9999999999999982 8.8000000000000007 8.8000000000000007 #
-243 coedge $-1 -1 -1 $-1 $174 $152 $155 $247 forward $245 $-1 #
-244 coedge $-1 -1 -1 $-1 $152 $174 $159 $251 reversed $245 $-1 #
-245 loop $-1 -1 -1 $-1 $332 $174 $209 T 1.7763568394002505e-15 9.9999999999999982 -8.2708072532626408e-16 10.000000000000002 10 10 periphery $299 T #
-246 straight-curve $-1 -1 -1 $-1 10.000000000000002 9.9999999999999982 0 -6.123233995736766e-17 0 1 I I #
-247 edge $333 -1 -1 $-1 $157 0 $179 10 $155 $334 forward @7 unknown T 1.7763568394002505e-15 9.9999999999999982 -8.2708072532626408e-16 10.000000000000002 9.9999999999999982 0 #
-248 loop $-1 -1 -1 $-1 $-1 $335 $126 T 1.1999999999999975 1.1999999999999986 -7.5360191737742315e-16 8.7999999999999989 8.7999999999999989 4.3959490458568356e-16 hole $210 T #
-249 integer_attrib-name_attrib-gen-attrib $-1 -1 $336 $-1 $157 2 4 2 1 1 1 1 1 1 1 1 1 1 1 0 1 1 1 @16 SKETCH_ENTITY_ID 300000 #
-250 point $-1 -1 -1 $-1 10.000000000000002 10 0 #
-251 edge $337 -1 -1 $-1 $163 0 $177 10 $244 $338 forward @7 unknown T 1.7763568394002505e-15 9.9999999999999982 10 10.000000000000002 9.9999999999999982 10 #
-252 loop $-1 -1 -1 $-1 $-1 $339 $253 T 1.1999999999999975 1.1999999999999986 10 8.7999999999999989 8.7999999999999989 10 hole $254 T #
-253 face $340 -1 -1 $-1 $37 $161 $6 $-1 $254 reversed single T 0 0 10 10.000000000000002 10 10 F #
-254 plane-surface $-1 -1 -1 $-1 10.000000000000002 4.9999999999999991 10 8.2708072532626406e-17 -1.3150093578817583e-33 -1 -6.123233995736766e-17 -1 -3.749399456654644e-33 forward_v I I I I #
-255 integer_attrib-name_attrib-gen-attrib $-1 -1 $341 $-1 $163 2 4 2 1 1 1 1 1 1 1 1 1 1 1 0 1 1 1 @16 SKETCH_ENTITY_ID 300000 #
-256 point $-1 -1 -1 $-1 10.000000000000002 10 10 #
-257 integer_attrib-name_attrib-gen-attrib $-1 -1 $-1 $-1 $165 2 4 2 1 1 1 1 1 1 1 1 1 1 1 0 1 1 1 @16 SKETCH_ENTITY_ID 300015 #
-258 straight-curve $-1 -1 -1 $-1 10.000000000000002 0 10 -1 8.2708072532626406e-17 -8.2708072532626406e-17 I I #
-259 straight-curve $-1 -1 -1 $-1 10.000000000000002 0 0 -1 8.2708072532626406e-17 -8.2708072532626406e-17 I I #
-260 coedge $-1 -1 -1 $-1 $342 $343 $344 $345 reversed $167 $-1 #
-261 cface_ptr-ct-attrib $-1 -1 $-1 $-1 $168 1 1 1 1 1 1 1 1 1 1 1 1 0 1 0 1 1 1 $-1 $346 #
-262 integer_attrib-name_attrib-gen-attrib $-1 -1 $-1 $170 $95 2 4 2 1 1 1 1 1 1 1 1 1 1 1 0 1 1 1 @16 SKETCH_ENTITY_ID 300011 #
-263 straight-curve $-1 -1 -1 $-1 1.7763568394002505e-15 10 5 0 -5.0644088145364023e-33 1 I I #
-264 integer_attrib-name_attrib-gen-attrib $-1 -1 $347 $-1 $177 2 4 2 1 1 1 1 1 1 1 1 1 1 1 0 1 1 1 @16 SKETCH_ENTITY_ID 300005 #
-265 point $-1 -1 -1 $-1 1.7763568394002505e-15 10 10 #
-266 integer_attrib-name_attrib-gen-attrib $-1 -1 $-1 $-1 $179 2 4 2 1 1 1 1 1 1 1 1 1 1 1 0 1 1 1 @16 SKETCH_ENTITY_ID 300004 #
-267 point $-1 -1 -1 $-1 1.7763568394002505e-15 10 0 #
-268 coedge $-1 -1 -1 $-1 $185 $184 $342 $348 forward $40 $-1 #
-269 coedge $-1 -1 -1 $-1 $195 $287 $184 $270 reversed $200 $-1 #
-270 edge $-1 -1 -1 $-1 $197 2.3561944901923457 $349 3.1415926535897922 $184 $350 forward @7 unknown T 0.84852813742385691 7.2783103828711323e-16 8.8000000000000007 1.1999999999999988 0.84852813742385624 9.1514718625761429 #
-271 coedge $-1 -1 -1 $-1 $344 $202 $185 $272 reversed $68 $-1 #
-272 edge $-1 -1 -1 $-1 $351 6.6775820519662768e-16 $222 0.78539816339744806 $185 $352 forward @7 unknown T 0.84852813742385724 7.2783103828711195e-16 0.84852813742385724 1.2000000000000006 0.8485281374238568 1.2000000000000006 #
-273 coedge $-1 -1 -1 $-1 $188 $187 $353 $354 forward $77 $-1 #
-274 coedge $-1 -1 -1 $-1 $224 $355 $187 $275 reversed $218 $-1 #
-275 edge $-1 -1 -1 $-1 $226 -0.78539816339744717 $356 0 $187 $357 forward @7 unknown T 0.8485281374238558 9.1514718625761429 0.84852813742385802 1.2000000000000006 9.9999999999999982 1.2000000000000006 #
-276 coedge $-1 -1 -1 $-1 $358 $191 $188 $277 reversed $131 $-1 #
-277 edge $-1 -1 -1 $-1 $359 3.1415926535897931 $193 3.9269908169872405 $188 $360 forward @7 unknown T 0.84852813742385513 9.1514718625761411 8.8000000000000007 1.1999999999999988 9.9999999999999982 9.1514718625761429 #
-278 coedge $-1 -1 -1 $-1 $307 $339 $190 $279 reversed $252 $-1 #
-279 edge $-1 -1 -1 $-1 $280 1.2000000000000011 $284 8.8000000000000007 $190 $361 forward @7 unknown T 1.1999999999999975 1.1999999999999986 10 1.2000000000000006 8.7999999999999989 10 #
-280 vertex $-1 -1 -1 $-1 $279 $362 #
-281 ellipse-curve $-1 -1 -1 $-1 0 9.9999999999999982 10 -0.70710678118654735 -0.70710678118654768 -4.3297802811774701e-17 -1.2000000000000006 1.2 -7.3478807948841227e-17 0.70710678118654735 I I #
-282 point $-1 -1 -1 $-1 0.84852813742385513 9.1514718625761429 9.1514718625761411 #
-283 coedge $-1 -1 -1 $-1 $363 $195 $339 $364 forward $200 $-1 #
-284 vertex $-1 -1 -1 $-1 $196 $365 #
-285 ellipse-curve $-1 -1 -1 $-1 0 0 10 -0.70710678118654791 0.70710678118654724 -8.6595605623549378e-17 1.1999999999999988 1.2 7.3478807948841116e-17 0.70710678118654791 I I #
-286 point $-1 -1 -1 $-1 0.84852813742385724 0.84852813742385624 9.1514718625761411 #
-287 coedge $-1 -1 -1 $-1 $269 $366 $367 $368 forward $200 $-1 #
-288 coedge $-1 -1 -1 $-1 $203 $344 $300 $369 reversed $68 $-1 #
-289 coedge $-1 -1 -1 $-1 $229 $370 $203 $290 forward $127 $-1 #
-290 edge $-1 -1 -1 $-1 $293 -5.3174523221998956e-16 $371 0.78539816339744761 $289 $372 forward @7 unknown T 8.7999999999999989 0.8485281374238568 -9.9249687039152345e-17 9.1514718625761411 1.1999999999999993 0.84852813742385735 #
-291 coedge $-1 -1 -1 $-1 $335 $204 $370 $373 reversed $248 $-1 #
-292 coedge $-1 -1 -1 $-1 $204 $335 $220 $312 reversed $248 $-1 #
-293 vertex $-1 -1 -1 $-1 $290 $374 #
-294 vertex $-1 -1 -1 $-1 $312 $375 #
-295 straight-curve $-1 -1 -1 $-1 -7.9602041944577942e-17 1.2 -8.2708072532626418e-16 -1 6.123233995736766e-17 -6.123233995736766e-17 I I #
-296 cface $-1 -1 $346 $9 $126 0 #
-297 cface $-1 -1 $376 $9 $134 0 #
-298 cface_ptr-ct-attrib $-1 -1 $-1 $-1 $209 1 1 1 1 1 1 1 1 1 1 1 1 0 1 0 1 1 1 $-1 $376 #
-299 plane-surface $-1 -1 -1 $-1 10.000000000000002 9.9999999999999982 5 -8.2708072532626406e-17 -1 -5.0644088145364023e-33 -6.123233995736766e-17 0 1 forward_v I I I I #
-300 coedge $-1 -1 -1 $-1 $377 $211 $288 $369 forward $72 $-1 #
-301 edge $-1 -1 -1 $-1 $230 0 $371 0.7853981633974485 $211 $378 forward @7 unknown T 9.1514718625761411 0.8485281374238568 0.84852813742385735 9.9999999999999982 1.2000000000000002 1.2000000000000006 #
-302 coedge $-1 -1 -1 $-1 $212 $377 $366 $379 forward $72 $-1 #
-303 edge $-1 -1 -1 $-1 $380 2.3561944901923448 $235 3.1415926535897931 $212 $381 forward @7 unknown T 9.1514718625761411 0.84852813742385602 8.8000000000000007 9.9999999999999982 1.1999999999999988 9.1514718625761429 #
-304 straight-curve $-1 -1 -1 $-1 9.9999999999999982 1.2 0 -0 -0 -1 I I #
-305 cface $-1 -1 $25 $9 $217 0 #
-306 coedge $-1 -1 -1 $-1 $215 $324 $321 $382 reversed $131 $-1 #
-307 coedge $-1 -1 -1 $-1 $383 $278 $215 $308 reversed $252 $-1 #
-308 edge $-1 -1 -1 $-1 $384 -8.7999999999999972 $280 -1.1999999999999988 $215 $385 forward @7 unknown T 1.2000000000000006 8.7999999999999989 10 8.7999999999999989 8.7999999999999989 10 #
-309 cface_ptr-ct-attrib $-1 -1 $-1 $-1 $217 1 1 1 1 1 1 1 1 1 1 1 1 0 1 0 1 1 1 $-1 $305 #
-310 cone-surface $-1 -1 -1 $-1 9.9999999999999982 10 10 0 -1 6.123233995736766e-17 1.2 0 0 1 I I 0 1 1.2 forward I I I I #
-311 coedge $-1 -1 -1 $-1 $386 $224 $335 $387 forward $218 $-1 #
-312 edge $-1 -1 -1 $-1 $294 -8.8000000000000007 $315 -1.2000000000000028 $220 $388 forward @7 unknown T 1.1999999999999975 1.1999999999999986 -7.2783103828711303e-16 1.2000000000000008 8.7999999999999972 -1.8898644666227704e-16 #
-313 ellipse-curve $-1 -1 -1 $-1 0 0 0 -0.70710678118654791 0.70710678118654724 -8.6595605623549329e-17 1.1999999999999988 1.2 7.3478807948841116e-17 0.70710678118654791 I I #
-314 point $-1 -1 -1 $-1 0.84852813742385724 0.8485281374238568 0.84852813742385724 #
-315 vertex $-1 -1 -1 $-1 $225 $389 #
-316 ellipse-curve $-1 -1 -1 $-1 0 9.9999999999999982 -1.0877048587575128e-31 -0.70710678118654724 -0.70710678118654768 -4.329780281177467e-17 -1.2000000000000008 1.2 -7.3478807948841239e-17 0.70710678118654735 I I #
-317 point $-1 -1 -1 $-1 0.8485281374238558 9.1514718625761429 0.84852813742385824 #
-318 coedge $-1 -1 -1 $-1 $370 $228 $386 $390 forward $127 $-1 #
-319 point $-1 -1 -1 $-1 9.9999999999999982 1.2000000000000002 1.2000000000000006 #
-320 coedge $-1 -1 -1 $-1 $391 $232 $363 $392 forward $234 $-1 #
-321 coedge $-1 -1 -1 $-1 $233 $391 $306 $382 forward $234 $-1 #
-322 point $-1 -1 -1 $-1 9.9999999999999982 1.1999999999999975 8.8000000000000007 #
-323 coedge $-1 -1 -1 $-1 $239 $237 $393 $394 forward $135 $-1 #
-324 coedge $-1 -1 -1 $-1 $306 $358 $237 $325 reversed $131 $-1 #
-325 edge $-1 -1 -1 $-1 $326 2.3561944901923457 $395 3.1415926535897931 $237 $396 forward @7 unknown T 8.8000000000000007 9.1514718625761411 8.8000000000000007 9.1514718625761446 9.9999999999999982 9.1514718625761429 #
-326 vertex $-1 -1 -1 $-1 $382 $397 #
-327 ellipse-curve $-1 -1 -1 $-1 9.9999999999999982 10 10 -0 0.70710678118654802 -0.70710678118654713 -0 1.1999999999999986 1.2 0.70710678118654802 I I #
-328 coedge $-1 -1 -1 $-1 $355 $386 $239 $329 reversed $218 $-1 #
-329 edge $-1 -1 -1 $-1 $398 6.1232339957367623e-17 $330 0.78539816339744717 $239 $399 forward @7 unknown T 8.8000000000000007 9.1514718625761411 0.84852813742385869 9.1514718625761429 9.9999999999999982 1.2000000000000006 #
-330 vertex $-1 -1 -1 $-1 $240 $400 #
-331 ellipse-curve $-1 -1 -1 $-1 9.9999999999999982 10 0 -0 0.70710678118654768 0.70710678118654735 0 -1.1999999999999995 1.2 0.70710678118654757 I I #
-332 loop $-1 -1 -1 $-1 $-1 $401 $209 T 1.1999999999999975 9.9999999999999982 1.2 8.8000000000000007 9.9999999999999982 8.8000000000000007 hole $299 T #
-333 integer_attrib-name_attrib-gen-attrib $-1 -1 $-1 $-1 $247 2 4 2 1 1 1 1 1 1 1 1 1 1 1 0 1 1 1 @16 SKETCH_ENTITY_ID 300019 #
-334 straight-curve $-1 -1 -1 $-1 10.000000000000002 9.9999999999999982 0 -1 8.2708072532626406e-17 -8.2708072532626406e-17 I I #
-335 coedge $-1 -1 -1 $-1 $292 $291 $311 $387 reversed $248 $-1 #
-336 integer_attrib-name_attrib-gen-attrib $-1 -1 $-1 $249 $157 2 4 2 1 1 1 1 1 1 1 1 1 1 1 0 1 1 1 @16 SKETCH_ENTITY_ID 300002 #
-337 integer_attrib-name_attrib-gen-attrib $-1 -1 $402 $-1 $251 2 4 2 1 1 1 1 1 1 1 1 1 1 1 0 1 1 1 @16 SKETCH_ENTITY_ID 300013 #
-338 straight-curve $-1 -1 -1 $-1 10.000000000000002 9.9999999999999982 10 -1 8.2708072532626406e-17 -8.2708072532626406e-17 I I #
-339 coedge $-1 -1 -1 $-1 $278 $383 $283 $364 reversed $252 $-1 #
-340 cface_ptr-ct-attrib $-1 -1 $-1 $-1 $253 1 1 1 1 1 1 1 1 1 1 1 1 0 1 0 1 1 1 $-1 $206 #
-341 integer_attrib-name_attrib-gen-attrib $-1 -1 $403 $255 $163 2 4 2 1 1 1 1 1 1 1 1 1 1 1 0 1 1 1 @16 SKETCH_ENTITY_ID 300001 #
-342 coedge $-1 -1 -1 $-1 $367 $260 $268 $348 reversed $167 $-1 #
-343 coedge $-1 -1 -1 $-1 $260 $367 $377 $404 reversed $167 $-1 #
-344 coedge $-1 -1 -1 $-1 $288 $271 $260 $345 forward $68 $-1 #
-345 edge $-1 -1 -1 $-1 $351 1.2000000000000006 $405 8.8000000000000007 $344 $406 forward @7 unknown T 1.2000000000000006 9.924968703915184e-17 1.2 8.8000000000000007 7.5360191737742296e-16 1.2000000000000006 #
-346 cface $-1 -1 $207 $9 $168 0 #
-347 integer_attrib-name_attrib-gen-attrib $-1 -1 $-1 $264 $177 2 4 2 1 1 1 1 1 1 1 1 1 1 1 0 1 1 1 @16 SKETCH_ENTITY_ID 300002 #
-348 edge $-1 -1 -1 $-1 $349 -8.8000000000000007 $351 -1.2000000000000006 $268 $407 forward @7 unknown T 1.1999999999999975 7.2783103828711224e-16 1.2000000000000006 1.2000000000000006 7.2783103828711323e-16 8.8000000000000007 #
-349 vertex $-1 -1 -1 $-1 $348 $408 #
-350 ellipse-curve $-1 -1 -1 $-1 0 0 10 -0.70710678118654791 4.3297802811774683e-17 -0.70710678118654724 -1.1999999999999988 7.3478807948841116e-17 1.2 0.70710678118654791 I I #
-351 vertex $-1 -1 -1 $-1 $272 $409 #
-352 ellipse-curve $-1 -1 -1 $-1 0 0 0 -0.70710678118654757 4.3297802811774664e-17 0.70710678118654757 1.2 -7.347880794884119e-17 1.2 0.70710678118654746 I I #
-353 coedge $-1 -1 -1 $-1 $401 $410 $273 $354 reversed $332 $-1 #
-354 edge $-1 -1 -1 $-1 $356 1.2000000000000006 $359 8.8000000000000007 $273 $411 forward @7 unknown T 1.1999999999999975 9.9999999999999982 1.2000000000000006 1.2000000000000006 9.9999999999999982 8.8000000000000007 #
-355 coedge $-1 -1 -1 $-1 $274 $328 $401 $412 forward $218 $-1 #
-356 vertex $-1 -1 -1 $-1 $412 $413 #
-357 ellipse-curve $-1 -1 -1 $-1 0 9.9999999999999982 -1.0877048587575128e-31 -0.70710678118654757 4.3297802811774714e-17 0.70710678118654757 1.2 -7.347880794884119e-17 1.2 0.70710678118654746 I I #
-358 coedge $-1 -1 -1 $-1 $324 $276 $410 $414 forward $131 $-1 #
-359 vertex $-1 -1 -1 $-1 $277 $415 #
-360 ellipse-curve $-1 -1 -1 $-1 0 9.9999999999999982 10 -0.70710678118654791 4.3297802811774738e-17 -0.70710678118654724 -1.1999999999999988 7.3478807948841116e-17 1.2 0.70710678118654791 I I #
-361 straight-curve $-1 -1 -1 $-1 1.2 10 10 0 -1 6.123233995736766e-17 I I #
-362 point $-1 -1 -1 $-1 1.2000000000000006 8.7999999999999989 10 #
-363 coedge $-1 -1 -1 $-1 $366 $283 $320 $392 reversed $200 $-1 #
-364 edge $-1 -1 -1 $-1 $284 1.1999999999999975 $416 8.7999999999999989 $283 $417 forward @7 unknown T 1.1999999999999975 1.1999999999999986 10 8.7999999999999989 1.2 10 #
-365 point $-1 -1 -1 $-1 1.1999999999999975 1.1999999999999986 10 #
-366 coedge $-1 -1 -1 $-1 $287 $363 $302 $379 reversed $200 $-1 #
-367 coedge $-1 -1 -1 $-1 $343 $342 $287 $368 reversed $167 $-1 #
-368 edge $-1 -1 -1 $-1 $418 -8.8000000000000025 $349 -1.1999999999999975 $287 $419 forward @7 unknown T 1.1999999999999975 9.9249687039151741e-17 8.8000000000000007 8.8000000000000025 7.5360191737742315e-16 8.8000000000000007 #
-369 edge $-1 -1 -1 $-1 $371 -0.78539816339744806 $405 -8.8817841970012523e-16 $300 $420 forward @7 unknown T 8.8000000000000007 9.924968703915184e-17 0.84852813742385735 9.1514718625761429 0.84852813742385691 1.2000000000000006 #
-370 coedge $-1 -1 -1 $-1 $289 $318 $291 $373 forward $127 $-1 #
-371 vertex $-1 -1 -1 $-1 $369 $421 #
-372 ellipse-curve $-1 -1 -1 $-1 9.9999999999999982 -6.1232339957367653e-16 6.1232339957367653e-16 0.70710678118654791 0.70710678118654724 -4.329780281177467e-17 -1.1999999999999988 1.2 -7.3478807948841116e-17 0.70710678118654791 I I #
-373 edge $-1 -1 -1 $-1 $422 1.2000000000000011 $293 8.8000000000000007 $370 $423 forward @7 unknown T 8.7999999999999989 1.1999999999999993 -9.9249687039152345e-17 8.7999999999999989 8.7999999999999989 4.3959490458568356e-16 #
-374 point $-1 -1 -1 $-1 8.7999999999999989 1.1999999999999993 -9.9249687039152345e-17 #
-375 point $-1 -1 -1 $-1 1.1999999999999975 1.1999999999999986 -7.2783103828711303e-16 #
-376 cface $-1 -1 $214 $9 $209 0 #
-377 coedge $-1 -1 -1 $-1 $302 $300 $343 $404 forward $72 $-1 #
-378 ellipse-curve $-1 -1 -1 $-1 9.9999999999999982 0 6.1232339957367663e-16 0 -0.70710678118654746 0.70710678118654757 -0 1.2000000000000002 1.2 0.70710678118654746 I I #
-379 edge $-1 -1 -1 $-1 $418 3.141592653589794 $380 3.9269908169872405 $302 $424 forward @7 unknown T 8.8000000000000025 9.9249687039151741e-17 8.8000000000000007 9.1514718625761429 0.84852813742385602 9.1514718625761429 #
-380 vertex $-1 -1 -1 $-1 $303 $425 #
-381 ellipse-curve $-1 -1 -1 $-1 9.9999999999999982 0 10 0 -0.70710678118654791 -0.70710678118654724 0 -1.1999999999999988 1.2 0.70710678118654791 I I #
-382 edge $-1 -1 -1 $-1 $384 3.1415926535897931 $326 3.9269908169872432 $321 $426 forward @7 unknown T 8.7999999999999989 8.7999999999999989 9.1514718625761411 9.1514718625761446 9.1514718625761429 10 #
-383 coedge $-1 -1 -1 $-1 $339 $307 $391 $427 reversed $252 $-1 #
-384 vertex $-1 -1 -1 $-1 $382 $428 #
-385 straight-curve $-1 -1 -1 $-1 1.8559588813448285e-15 8.7999999999999989 10 -1 6.123233995736766e-17 -6.123233995736766e-17 I I #
-386 coedge $-1 -1 -1 $-1 $328 $311 $318 $390 reversed $218 $-1 #
-387 edge $-1 -1 -1 $-1 $315 1.1999999999999991 $422 8.7999999999999972 $311 $429 forward @7 unknown T 1.2000000000000008 8.7999999999999972 -7.5360191737742296e-16 8.7999999999999989 8.7999999999999989 -9.9249687039151877e-17 #
-388 straight-curve $-1 -1 -1 $-1 1.2 10 -7.2783103828711254e-16 -0 1 -6.123233995736766e-17 I I #
-389 point $-1 -1 -1 $-1 1.2000000000000008 8.7999999999999972 -7.2783103828711254e-16 #
-390 edge $-1 -1 -1 $-1 $330 2.3561944901923439 $422 3.141592653589794 $318 $430 forward @7 unknown T 8.7999999999999989 8.7999999999999989 -3.8001189611763258e-16 9.1514718625761429 9.1514718625761429 0.84852813742385869 #
-391 coedge $-1 -1 -1 $-1 $321 $320 $383 $427 forward $234 $-1 #
-392 edge $-1 -1 -1 $-1 $380 -0.78539816339744806 $416 0 $320 $431 forward @7 unknown T 8.7999999999999989 0.84852813742385602 9.1514718625761429 9.1514718625761411 1.1999999999999993 10 #
-393 coedge $-1 -1 -1 $-1 $410 $401 $323 $394 reversed $332 $-1 #
-394 edge $-1 -1 -1 $-1 $395 -8.8000000000000007 $398 -1.2000000000000006 $323 $432 forward @7 unknown T 8.8000000000000007 9.9999999999999982 1.2000000000000006 8.8000000000000007 9.9999999999999982 8.8000000000000007 #
-395 vertex $-1 -1 -1 $-1 $394 $433 #
-396 ellipse-curve $-1 -1 -1 $-1 10 9.9999999999999982 10 0.70710678118654802 0 -0.70710678118654713 1.1999999999999986 -7.3478807948841104e-17 1.2 0.70710678118654802 I I #
-397 point $-1 -1 -1 $-1 9.1514718625761446 9.1514718625761429 9.1514718625761429 #
-398 vertex $-1 -1 -1 $-1 $329 $434 #
-399 ellipse-curve $-1 -1 -1 $-1 10 9.9999999999999982 6.1232339957367653e-16 0.70710678118654757 -0 0.70710678118654735 -1.1999999999999995 7.3478807948841165e-17 1.2 0.70710678118654757 I I #
-400 point $-1 -1 -1 $-1 9.1514718625761411 9.1514718625761411 0.84852813742385869 #
-401 coedge $-1 -1 -1 $-1 $393 $353 $355 $412 reversed $332 $-1 #
-402 integer_attrib-name_attrib-gen-attrib $-1 -1 $-1 $337 $251 2 4 2 1 1 1 1 1 1 1 1 1 1 1 0 1 1 1 @16 SKETCH_ENTITY_ID 300021 #
-403 integer_attrib-name_attrib-gen-attrib $-1 -1 $-1 $341 $163 2 4 2 1 1 1 1 1 1 1 1 1 1 1 0 1 1 1 @16 SKETCH_ENTITY_ID 300005 #
-404 edge $-1 -1 -1 $-1 $405 1.2000000000000004 $418 8.8000000000000007 $377 $435 forward @7 unknown T 8.8000000000000007 9.9249687039151741e-17 1.2000000000000004 8.8000000000000025 9.9249687039151852e-17 8.8000000000000007 #
-405 vertex $-1 -1 -1 $-1 $345 $436 #
-406 straight-curve $-1 -1 -1 $-1 7.9602041944577967e-17 8.2708072532626418e-16 1.2 1 -6.123233995736766e-17 6.123233995736766e-17 I I #
-407 straight-curve $-1 -1 -1 $-1 1.2 7.2783103828711264e-16 0 -0 -0 -1 I I #
-408 point $-1 -1 -1 $-1 1.1999999999999975 7.2783103828711323e-16 8.8000000000000007 #
-409 point $-1 -1 -1 $-1 1.2000000000000006 7.2783103828711224e-16 1.2000000000000006 #
-410 coedge $-1 -1 -1 $-1 $353 $393 $358 $414 reversed $332 $-1 #
-411 straight-curve $-1 -1 -1 $-1 1.2 9.9999999999999982 0 0 0 1 I I #
-412 edge $-1 -1 -1 $-1 $398 -8.7999999999999989 $356 -1.1999999999999988 $355 $437 forward @7 unknown T 1.2000000000000006 9.9999999999999982 1.2 8.8000000000000007 9.9999999999999982 1.2000000000000006 #
-413 point $-1 -1 -1 $-1 1.2000000000000006 9.9999999999999982 1.2000000000000006 #
-414 edge $-1 -1 -1 $-1 $359 1.1999999999999957 $395 8.7999999999999989 $358 $438 forward @7 unknown T 1.1999999999999975 9.9999999999999982 8.8000000000000007 8.8000000000000007 9.9999999999999982 8.8000000000000007 #
-415 point $-1 -1 -1 $-1 1.1999999999999975 9.9999999999999982 8.8000000000000007 #
-416 vertex $-1 -1 -1 $-1 $364 $439 #
-417 straight-curve $-1 -1 -1 $-1 -7.9602041944577918e-17 1.2 10 1 -6.123233995736766e-17 6.123233995736766e-17 I I #
-418 vertex $-1 -1 -1 $-1 $379 $440 #
-419 straight-curve $-1 -1 -1 $-1 -7.9602041944577942e-17 8.2708072532626418e-16 8.8000000000000007 -1 6.123233995736766e-17 -6.123233995736766e-17 I I #
-420 ellipse-curve $-1 -1 -1 $-1 10 -6.1232339957367663e-16 6.1232339957367663e-16 0.70710678118654768 -0 0.70710678118654746 -1.1999999999999995 7.3478807948841165e-17 1.2 0.70710678118654757 I I #
-421 point $-1 -1 -1 $-1 9.1514718625761411 0.84852813742385691 0.84852813742385735 #
-422 vertex $-1 -1 -1 $-1 $387 $441 #
-423 straight-curve $-1 -1 -1 $-1 8.7999999999999989 10 -9.9249687039151951e-17 0 -1 6.123233995736766e-17 I I #
-424 ellipse-curve $-1 -1 -1 $-1 10 -6.1232339957367663e-16 10 0.70710678118654802 0 -0.70710678118654691 1.199999999999998 -7.3478807948841067e-17 1.2 0.70710678118654813 I I #
-425 point $-1 -1 -1 $-1 9.1514718625761411 0.84852813742385602 9.1514718625761429 #
-426 ellipse-curve $-1 -1 -1 $-1 9.9999999999999982 9.9999999999999982 10 0.70710678118654757 -0.70710678118654757 0 1.2 1.2 7.347880794884119e-17 0.70710678118654746 I I #
-427 edge $-1 -1 -1 $-1 $416 -8.8000000000000007 $384 -1.2000000000000011 $391 $442 forward @7 unknown T 8.7999999999999989 1.1999999999999993 10 8.7999999999999989 8.7999999999999989 10 #
-428 point $-1 -1 -1 $-1 8.7999999999999989 8.7999999999999989 10 #
-429 straight-curve $-1 -1 -1 $-1 1.8559588813448285e-15 8.7999999999999989 -8.2708072532626408e-16 1 -6.123233995736766e-17 6.123233995736766e-17 I I #
-430 ellipse-curve $-1 -1 -1 $-1 9.9999999999999982 9.9999999999999982 6.1232339957367643e-16 0.70710678118654757 -0.70710678118654757 0 1.2 1.2 7.347880794884119e-17 0.70710678118654746 I I #
-431 ellipse-curve $-1 -1 -1 $-1 9.9999999999999982 -6.1232339957367653e-16 10 0.70710678118654791 0.70710678118654724 -4.3297802811774689e-17 -1.1999999999999988 1.2 -7.3478807948841116e-17 0.70710678118654791 I I #
-432 straight-curve $-1 -1 -1 $-1 8.8000000000000007 9.9999999999999982 0 -0 -0 -1 I I #
-433 point $-1 -1 -1 $-1 8.8000000000000007 9.9999999999999982 8.8000000000000007 #
-434 point $-1 -1 -1 $-1 8.8000000000000007 9.9999999999999982 1.2000000000000006 #
-435 straight-curve $-1 -1 -1 $-1 8.8000000000000007 9.9249687039151852e-17 0 0 0 1 I I #
-436 point $-1 -1 -1 $-1 8.8000000000000007 9.924968703915184e-17 1.2000000000000004 #
-437 straight-curve $-1 -1 -1 $-1 1.8559588813448281e-15 9.9999999999999982 1.2 -1 6.123233995736766e-17 -6.123233995736766e-17 I I #
-438 straight-curve $-1 -1 -1 $-1 1.6967547974556725e-15 9.9999999999999982 8.8000000000000007 1 -6.123233995736766e-17 6.123233995736766e-17 I I #
-439 point $-1 -1 -1 $-1 8.7999999999999989 1.1999999999999993 10 #
-440 point $-1 -1 -1 $-1 8.8000000000000025 9.9249687039151741e-17 8.8000000000000007 #
-441 point $-1 -1 -1 $-1 8.7999999999999989 8.7999999999999989 -9.9249687039151877e-17 #
-442 straight-curve $-1 -1 -1 $-1 8.7999999999999989 10 10 -0 1 -6.123233995736766e-17 I I #
End-of-ACIS-data 
